<?xml version="1.0" encoding="UTF-8"?>
<!-- Uploaded to: SVG Find, www.svgrepo.com, Generator: SVG Find Mixer Tools -->
<svg fill="#000000" width="800px" height="800px" version="1.1" viewBox="144 144 512 512" xmlns="http://www.w3.org/2000/svg">
 <path d="m178.13 372.72c-3.0469 0.94531-5.2188 3.6367-5.5039 6.8086-1.2266 13.617-1.2266 27.316 0 40.934 0.28516 3.1719 2.457 5.8633 5.5039 6.8086 9.6211 2.9922 19.422 4.8164 29.41 5.4805 1.2109 7.1641 2.832 14.258 4.8398 21.238-8.707 4.9297-16.742 10.832-24.113 17.695-2.3398 2.1719-3.125 5.543-2.0078 8.5273 4.8008 12.801 10.746 25.137 17.758 36.871 1.6367 2.7383 4.7617 4.2188 7.9102 3.7461 9.9648-1.4805 19.586-4.0859 28.875-7.8242 4.2031 5.9258 8.7461 11.617 13.586 17.043-5.7148 8.2188-10.398 17.02-14.051 26.402-1.1641 2.9688-0.41797 6.3438 1.8906 8.5508 9.8789 9.4453 20.594 17.988 32 25.52 2.6602 1.7539 6.1172 1.7305 8.7539-0.054688 8.3359-5.6602 15.879-12.188 22.625-19.578 6.3594 3.5117 12.91 6.668 19.633 9.4531-1.582 9.8789-1.9844 19.844-1.2109 29.883 0.25 3.1797 2.3867 5.8945 5.4219 6.8867 12.996 4.2188 26.348 7.2656 39.895 9.1094 3.1641 0.42578 6.2656-1.0938 7.8633-3.8555 5.0625-8.707 9.0195-17.855 11.887-27.449 7.2578 0.41016 14.531 0.41016 21.789 0 2.8672 9.5898 6.8242 18.742 11.887 27.449 1.5977 2.7617 4.6992 4.2812 7.8633 3.8555 13.547-1.8438 26.898-4.8867 39.895-9.1094 3.0391-0.99219 5.1719-3.707 5.4219-6.8867 0.76953-10.035 0.37109-20.004-1.2031-29.883 6.707-2.7852 13.266-5.9453 19.633-9.4531 6.7383 7.3906 14.281 13.918 22.617 19.578 2.6367 1.7852 6.0938 1.8125 8.7539 0.054688 11.406-7.5352 22.121-16.074 32-25.52 2.3047-2.2031 3.0547-5.582 1.8906-8.5508-3.6523-9.3828-8.3359-18.184-14.051-26.41 4.8398-5.4141 9.3828-11.109 13.586-17.035 9.2891 3.7383 18.91 6.3438 28.875 7.8242 3.1484 0.47266 6.2734-1.0078 7.9102-3.7461 7.0156-11.738 12.957-24.074 17.758-36.871 1.1172-2.9844 0.33203-6.3516-2.0078-8.5273-7.3672-6.8633-15.406-12.77-24.121-17.695 2.0156-6.9844 3.6367-14.074 4.8555-21.246 9.9805-0.65234 19.781-2.4805 29.402-5.4727 3.0469-0.94531 5.2188-3.6367 5.5039-6.8086 1.2266-13.617 1.2266-27.316 0-40.934-0.28516-3.1719-2.457-5.8633-5.5039-6.8086-9.6211-2.9922-19.422-4.8164-29.41-5.4805-1.2109-7.1641-2.832-14.258-4.8398-21.238 8.707-4.9297 16.742-10.832 24.113-17.695 2.3398-2.1719 3.125-5.543 2.0078-8.5273-4.8008-12.801-10.746-25.137-17.758-36.871-1.6367-2.7383-4.7617-4.2188-7.9102-3.7461-9.9648 1.4805-19.586 4.0859-28.875 7.8242-4.2031-5.9258-8.7461-11.617-13.586-17.043 5.7148-8.2188 10.398-17.02 14.051-26.402 1.1641-2.9688 0.41797-6.3438-1.8906-8.5508-9.8789-9.4453-20.594-17.988-32-25.52-2.6602-1.7539-6.1172-1.7305-8.7539 0.054688-8.3359 5.6602-15.879 12.188-22.625 19.578-6.3594-3.5117-12.91-6.668-19.633-9.4531 1.582-9.8789 1.9844-19.844 1.2109-29.883-0.25-3.1797-2.3867-5.8945-5.4219-6.8867-12.996-4.2188-26.348-7.2656-39.895-9.1094-3.1641-0.42578-6.2656 1.0938-7.8633 3.8555-5.0625 8.707-9.0195 17.855-11.887 27.449-7.2578-0.41016-14.531-0.41016-21.789 0-2.8672-9.5898-6.8242-18.742-11.887-27.449-1.5977-2.7617-4.6992-4.2812-7.8633-3.8555-13.547 1.8438-26.898 4.8867-39.895 9.1094-3.0391 0.99219-5.1719 3.707-5.4219 6.8867-0.76953 10.035-0.37109 20.004 1.2031 29.883-6.707 2.7852-13.266 5.9453-19.633 9.4531-6.7383-7.3906-14.281-13.918-22.617-19.578-2.6367-1.7852-6.0938-1.8125-8.7539-0.054688-11.406 7.5352-22.121 16.074-32 25.52-2.3047 2.2031-3.0547 5.582-1.8906 8.5508 3.6523 9.3828 8.3359 18.184 14.051 26.41-4.8398 5.4141-9.3828 11.109-13.586 17.035-9.2891-3.7383-18.91-6.3438-28.875-7.8242-3.1484-0.47266-6.2734 1.0078-7.9102 3.7461-7.0156 11.738-12.957 24.074-17.758 36.871-1.1172 2.9844-0.33203 6.3516 2.0078 8.5273 7.3672 6.8633 15.406 12.77 24.121 17.695-2.0156 6.9844-3.6367 14.074-4.8555 21.246-9.9805 0.65234-19.781 2.4805-29.402 5.4727zm9.7617 13.578c8.6836-2.2578 17.539-3.4492 26.559-3.582 3.8984-0.054688 7.1641-2.9531 7.6836-6.8164 1.4492-10.645 3.8398-21.145 7.1641-31.371 1.2031-3.6992-0.48828-7.7305-3.9688-9.4688-8.0781-4.0312-15.531-8.9492-22.371-14.754 3.4258-8.4766 7.3906-16.711 11.879-24.68 8.8086 1.7305 17.301 4.4961 25.48 8.2969 3.5352 1.6367 7.7383 0.44922 9.8867-2.8008 5.918-8.9727 12.633-17.391 20.059-25.16 2.6914-2.8164 2.9219-7.1797 0.53516-10.266-5.5273-7.1328-10.109-14.801-13.754-22.996 6.7617-6.1484 13.91-11.848 21.41-17.074 7.1797 5.375 13.633 11.555 19.355 18.531 2.4727 3.0078 6.7773 3.7539 10.125 1.7539 9.2266-5.5117 18.926-10.18 28.992-13.957 3.6445-1.3711 5.7461-5.2031 4.9297-9.0117-1.8828-8.8242-2.6836-17.719-2.418-26.688 8.7617-2.6055 17.68-4.6445 26.703-6.0938 4.1406 7.957 7.2734 16.328 9.4062 25.09 0.92188 3.7852 4.4727 6.3281 8.3516 5.9844 10.707-0.96875 21.477-0.96875 32.18 0 3.8828 0.34766 7.4297-2.1953 8.3516-5.9844 2.1328-8.7617 5.2656-17.129 9.4062-25.09 9.0195 1.4492 17.941 3.4883 26.695 6.0938 0.27734 8.9648-0.52734 17.863-2.4102 26.688-0.82031 3.8086 1.2812 7.6445 4.9297 9.0117 10.066 3.7773 19.766 8.4453 28.992 13.957 3.3438 2 7.6523 1.25 10.125-1.7539 5.7227-6.9766 12.18-13.152 19.355-18.531 7.5039 5.2266 14.648 10.926 21.41 17.074-3.6445 8.1953-8.2266 15.863-13.754 22.996-2.3867 3.0859-2.1562 7.4453 0.53516 10.266 7.4219 7.7695 14.137 16.184 20.059 25.16 2.1484 3.25 6.3516 4.4414 9.8867 2.8008 8.1797-3.8008 16.672-6.5664 25.48-8.2969 4.4883 7.9648 8.4531 16.199 11.879 24.68-6.8398 5.8008-14.297 10.723-22.371 14.754-3.4805 1.7383-5.1719 5.7695-3.9688 9.4688 3.3203 10.227 5.7148 20.727 7.1641 31.371 0.51953 3.8633 3.7852 6.7617 7.6836 6.8164 9.0195 0.13281 17.879 1.3242 26.559 3.582 0.58984 9.125 0.58984 18.27 0 27.387-8.6836 2.2656-17.539 3.457-26.559 3.5898-3.8984 0.054687-7.1641 2.9531-7.6836 6.8164-1.4492 10.645-3.8398 21.145-7.1641 31.371-1.2031 3.6992 0.48828 7.7305 3.9688 9.4688 8.0781 4.0312 15.531 8.9492 22.371 14.754-3.4258 8.4766-7.3906 16.711-11.879 24.68-8.8086-1.7305-17.301-4.4961-25.48-8.2969-3.5352-1.6367-7.7383-0.44922-9.8867 2.8008-5.918 8.9727-12.633 17.391-20.059 25.16-2.6914 2.8164-2.9219 7.1797-0.53516 10.266 5.5273 7.1328 10.109 14.801 13.754 22.996-6.7617 6.1484-13.91 11.848-21.41 17.074-7.1797-5.375-13.633-11.555-19.355-18.531-2.4727-3.0078-6.7773-3.7539-10.125-1.7539-9.2266 5.5117-18.926 10.18-28.992 13.957-3.6445 1.3711-5.7461 5.2031-4.9297 9.0117 1.8828 8.8242 2.6836 17.719 2.418 26.688-8.7617 2.6055-17.68 4.6445-26.703 6.0938-4.1406-7.957-7.2734-16.328-9.4062-25.09-0.92188-3.7852-4.4727-6.3281-8.3516-5.9844-10.707 0.96875-21.477 0.96875-32.18 0-3.8828-0.34766-7.4297 2.1953-8.3516 5.9844-2.1328 8.7617-5.2656 17.129-9.4062 25.09-9.0195-1.4492-17.941-3.4883-26.695-6.0938-0.27734-8.9648 0.52734-17.863 2.4102-26.688 0.82031-3.8086-1.2812-7.6445-4.9297-9.0117-10.066-3.7773-19.766-8.4453-28.992-13.957-3.3438-2-7.6523-1.25-10.125 1.7539-5.7227 6.9766-12.18 13.152-19.355 18.531-7.5039-5.2266-14.648-10.926-21.41-17.074 3.6445-8.1953 8.2266-15.863 13.754-22.996 2.3867-3.0859 2.1562-7.4453-0.53516-10.266-7.4219-7.7695-14.137-16.184-20.059-25.16-2.1484-3.25-6.3516-4.4414-9.8867-2.8008-8.1797 3.8008-16.672 6.5664-25.48 8.2969-4.4883-7.9648-8.4531-16.199-11.879-24.68 6.8398-5.8008 14.297-10.723 22.371-14.754 3.4805-1.7383 5.1719-5.7695 3.9688-9.4688-3.3203-10.227-5.7148-20.727-7.1641-31.371-0.51953-3.8633-3.7852-6.7617-7.6836-6.8164-9.0195-0.13281-17.879-1.3242-26.559-3.582-0.58984-9.125-0.58984-18.27 0-27.387zm221.79-54.363c-10.188 3.3125-17.555 12.895-17.555 24.184 0 14.027 11.391 25.418 25.426 25.418 14.027 0 25.426-11.391 25.426-25.418 0-11.289-7.3672-20.867-17.555-24.184v-64.441c62.316 11.902 109.47 66.738 109.47 132.5 0 65.762-47.152 120.6-109.47 132.5v-33.023l51.508-59.473c2.4648 0.79688 5.0938 1.2266 7.8242 1.2266 14.027 0 25.418-11.391 25.418-25.426 0-14.035-11.391-25.426-25.418-25.426-14.035 0-25.426 11.391-25.426 25.426 0 5.5664 1.7852 10.715 4.8242 14.902l-52.555 60.676c-1.2422 1.4336-1.9219 3.2578-1.9219 5.1562v45.152c0 2.25 0.96875 4.4023 2.6523 5.8945 1.6914 1.4961 3.9375 2.1875 6.1797 1.9219 74.414-9.1484 132.12-72.645 132.12-149.51 0-76.871-57.711-140.37-132.12-149.51-2.2422-0.26953-4.4883 0.42578-6.1797 1.9219-1.6836 1.4961-2.6523 3.6445-2.6523 5.8945v73.637zm-19.363 136.12c10.188-3.3125 17.555-12.895 17.555-24.184 0-14.027-11.391-25.418-25.426-25.418-14.027 0-25.426 11.391-25.426 25.418 0 11.289 7.3672 20.867 17.555 24.184v64.441c-62.316-11.902-109.47-66.738-109.47-132.5s47.152-120.6 109.47-132.5v33.023l-51.508 59.473c-2.4648-0.79688-5.0938-1.2266-7.8242-1.2266-14.027 0-25.418 11.391-25.418 25.426 0 14.035 11.391 25.426 25.418 25.426 14.035 0 25.426-11.391 25.426-25.426 0-5.5664-1.7852-10.715-4.8242-14.902l52.555-60.676c1.2422-1.4336 1.9219-3.2578 1.9219-5.1562v-45.152c0-2.25-0.96875-4.4023-2.6523-5.8945-1.6914-1.4961-3.9375-2.1875-6.1797-1.9219-74.414 9.1484-132.12 72.645-132.12 149.51 0 76.871 57.711 140.37 132.12 149.51 2.2422 0.26953 4.4883-0.42578 6.1797-1.9219 1.6836-1.4961 2.6523-3.6445 2.6523-5.8945v-73.637zm-7.8711-14.5c-5.3438 0-9.6836-4.3359-9.6836-9.6836 0-5.3359 4.3359-9.6758 9.6836-9.6758 5.3438 0 9.6836 4.3359 9.6836 9.6758 0 5.3438-4.3359 9.6836-9.6836 9.6836zm102.31-47.438c5.3359 0 9.6758 4.3359 9.6758 9.6836 0 5.3438-4.3359 9.6836-9.6758 9.6836-5.3438 0-9.6836-4.3359-9.6836-9.6836 0-5.3438 4.3359-9.6836 9.6836-9.6836zm-169.52-12.25c-5.3359 0-9.6758-4.3359-9.6758-9.6836 0-5.3438 4.3359-9.6836 9.6758-9.6836 5.3438 0 9.6836 4.3359 9.6836 9.6836 0 5.3438-4.3359 9.6836-9.6836 9.6836zm102.31-47.438c5.3438 0 9.6836 4.3359 9.6836 9.6836 0 5.3359-4.3359 9.6758-9.6836 9.6758-5.3438 0-9.6836-4.3359-9.6836-9.6758 0-5.3438 4.3359-9.6836 9.6836-9.6836z" fill-rule="evenodd"/>
</svg>