<?xml version="1.0" encoding="UTF-8"?>
<!-- Uploaded to: SVG Find, www.svgrepo.com, Generator: SVG Find Mixer Tools -->
<svg fill="#000000" width="800px" height="800px" version="1.1" viewBox="144 144 512 512" xmlns="http://www.w3.org/2000/svg">
 <g>
  <path d="m388.7 478.55h-22.672c-3.6641 0-6.5664 2.9766-6.5664 6.5664 0 3.6641 2.9766 6.5664 6.5664 6.5664h22.672c3.6641 0 6.5664-2.9766 6.5664-6.5664 0.078125-3.6641-2.9023-6.5664-6.5664-6.5664z"/>
  <path d="m211.68 353.89h138.16c7.5586 0 13.742-6.1836 13.742-13.742v-104.8c0-7.5586-6.1836-13.742-13.742-13.742l-138.16 0.003907c-7.5586 0-13.742 6.1836-13.742 13.742v104.81c0.003906 7.5547 6.1875 13.734 13.742 13.734zm-0.53516-118.55c0-0.30469 0.23047-0.53516 0.53516-0.53516h138.16c0.30469 0 0.53516 0.23047 0.53516 0.53516v104.81c0 0.30469-0.23047 0.53516-0.53516 0.53516h-138.16c-0.30469 0-0.53516-0.23047-0.53516-0.53516z"/>
  <path d="m260.54 326.64c0.99219 0.53516 1.9844 0.76172 3.0547 0.76172 2.3672 0 4.6562-1.2969 5.8789-3.5117l34.426-66.105c1.6797-3.207 0.45703-7.1758-2.8242-8.8555-3.207-1.6797-7.1758-0.45703-8.8555 2.8242l-34.426 66.105c-1.7578 3.1328-0.53516 7.1016 2.7461 8.7812z"/>
  <path d="m304.96 295.73 11.223 11.223-11.223 11.223c-2.5938 2.5938-2.5938 6.7188 0 9.3125 1.2969 1.2969 2.9766 1.9102 4.6562 1.9102 1.6797 0 3.3594-0.60938 4.6562-1.9102l15.879-15.879c2.5938-2.5938 2.5938-6.7188 0-9.3125l-15.879-15.879c-2.5938-2.5938-6.7188-2.5938-9.3125 0s-2.5938 6.793 0 9.3125z"/>
  <path d="m247.25 289.01c1.2969 1.2969 2.9766 1.9102 4.6562 1.9102 1.6797 0 3.3594-0.60938 4.6562-1.9102 2.5938-2.5938 2.5938-6.7188 0-9.3125l-11.223-11.223 11.223-11.223c2.5938-2.5938 2.5938-6.7188 0-9.3125s-6.7188-2.5938-9.3125 0l-15.879 15.879c-2.5938 2.5938-2.5938 6.7188 0 9.3125z"/>
  <path d="m410.15 275.04h127.25c3.6641 0 6.5664-2.9766 6.5664-6.5664v-40.305c0-3.6641-2.9766-6.5664-6.5664-6.5664l-127.25 0.003907c-3.6641 0-6.5664 2.9766-6.5664 6.5664v40.305c0 3.5859 2.9766 6.5625 6.5664 6.5625zm6.6406-40.305h114.04v27.098h-114.04z"/>
  <path d="m390.91 315.65h159.31c3.6641 0 6.5664-2.9766 6.5664-6.5664 0-3.6641-2.9766-6.5664-6.5664-6.5664l-159.31 0.003906c-3.6641 0-6.5664 2.9766-6.5664 6.5664 0.003906 3.6602 2.9023 6.5625 6.5664 6.5625z"/>
  <path d="m390.91 349.31h159.31c3.6641 0 6.5664-2.9766 6.5664-6.5664 0-3.6641-2.9766-6.5664-6.5664-6.5664l-159.31 0.003906c-3.6641 0-6.5664 2.9766-6.5664 6.5664 0.003906 3.5859 2.9023 6.5625 6.5664 6.5625z"/>
  <path d="m390.91 382.9h159.31c3.6641 0 6.5664-2.9766 6.5664-6.5664 0-3.6641-2.9766-6.5664-6.5664-6.5664l-159.31 0.003906c-3.6641 0-6.5664 2.9766-6.5664 6.5664 0.003906 3.5859 2.9023 6.5625 6.5664 6.5625z"/>
  <path d="m390.91 416.49h71.449c3.6641 0 6.5664-2.9766 6.5664-6.5664 0-3.6641-2.9766-6.5664-6.5664-6.5664h-71.449c-3.6641 0-6.5664 2.9766-6.5664 6.5664 0.003906 3.5898 2.9023 6.5664 6.5664 6.5664z"/>
  <path d="m204.58 382.9h141.45c3.6641 0 6.5664-2.9766 6.5664-6.5664 0-3.6641-2.9766-6.5664-6.5664-6.5664l-141.45 0.003906c-3.6641 0-6.5664 2.9766-6.5664 6.5664-0.074219 3.5859 2.9023 6.5625 6.5664 6.5625z"/>
  <path d="m204.58 416.49h141.45c3.6641 0 6.5664-2.9766 6.5664-6.5664 0-3.6641-2.9766-6.5664-6.5664-6.5664h-141.45c-3.6641 0-6.5664 2.9766-6.5664 6.5664-0.074219 3.5898 2.9023 6.5664 6.5664 6.5664z"/>
  <path d="m635.04 468.78-11.754-3.8164c-1.6797-6.1055-4.0469-11.832-7.1758-17.328l5.6484-10.992c2.3672-4.582 1.5273-10.152-2.1367-13.816l-7.5586-7.5586c-3.6641-3.6641-9.2383-4.5039-13.816-2.1367l-0.15234 0.078125-0.003906-198.78c0-17.176-13.969-31.145-31.145-31.145h-379.08c-17.176 0-31.145 13.969-31.145 31.145v282.9c0 17.176 13.969 31.145 31.145 31.145l111.38-0.003906v40.305h-14.352c-15.191 0-27.559 12.367-27.559 27.559v7.25h-14.734c-3.6641 0-6.5664 2.9766-6.5664 6.5664 0 3.6641 2.9766 6.5664 6.5664 6.5664h269.54c3.6641 0 6.5664-2.9766 6.5664-6.5664 0-3.6641-2.9766-6.5664-6.5664-6.5664h-14.734v-7.25c0-15.191-12.367-27.559-27.559-27.559h-14.352v-40.305h24.656l-2.9023 5.7266c-2.3672 4.582-1.4492 10.152 2.2148 13.816l7.5586 7.5586c3.6641 3.6641 9.2383 4.5039 13.816 2.2148l10.992-5.5742c5.4961 3.1289 11.297 5.4961 17.328 7.1758l3.8164 11.68c1.6016 4.9609 6.1055 8.2461 11.297 8.2461h10.688c5.1914 0 9.6953-3.2812 11.297-8.2461l3.8164-11.68c6.1055-1.6797 11.91-4.1211 17.328-7.1758l10.992 5.6484c4.582 2.3672 10.152 1.4492 13.816-2.2148l7.5586-7.5586c3.6641-3.6641 4.582-9.2383 2.2148-13.816l-5.6484-10.992c3.1289-5.418 5.4961-11.223 7.1758-17.328l11.754-3.8164c4.8867-1.6016 8.2461-6.1055 8.2461-11.297v-10.688c-0.22656-5.1875-3.5078-9.7695-8.4688-11.371zm-150.76 127.55v7.25h-213.74v-7.25c0-7.9375 6.4883-14.426 14.426-14.426h184.96c7.8633-0.003906 14.352 6.4883 14.352 14.426zm-296.41-399.92h379.08c9.9219 0 18.016 8.0898 18.016 18.016v203.28c-4.7344-2.5195-9.6953-4.582-14.961-6.0312l-3.8164-11.754c-1.6016-4.9609-6.1055-8.2461-11.297-8.2461h-10.688c-5.1914 0-9.6953 3.2812-11.297 8.2461l-3.8164 11.754c-6.1055 1.6797-11.91 4.1211-17.25 7.1758l-10.992-5.6484c-4.582-2.3672-10.152-1.5273-13.816 2.1367l-7.5586 7.5547c-3.6641 3.6641-4.5039 9.2383-2.2148 13.816l2.5938 5.0391h-310v-227.32c0-9.9258 8.0938-18.016 18.016-18.016zm-18.016 300.91v-42.367l309.54 0.003907c-1.4492 3.2812-2.6719 6.6406-3.6641 10.078l-11.754 3.8164c-4.8867 1.6016-8.2461 6.1055-8.2461 11.297v10.688c0 5.1914 3.2812 9.6953 8.2461 11.297l11.68 3.7422c0.91797 3.207 1.9844 6.3359 3.2812 9.3906l-291.07-0.003906c-9.9219 0-18.016-8.0156-18.016-17.941zm272.52 71.449h-130v-40.305h130zm187.79-78.93-14.352 4.582c-2.2148 0.6875-3.8945 2.5195-4.4258 4.8086-1.6016 7.1758-4.4258 13.969-8.3203 20.074-1.2969 1.9844-1.375 4.4258-0.30469 6.5664l6.8711 13.434-6.2578 6.2578-13.434-6.8711c-2.0625-1.0703-4.582-0.91797-6.5664 0.30469-6.1055 3.8945-12.824 6.7188-20 8.3203-2.2891 0.53516-4.1211 2.2148-4.8086 4.4258l-4.6562 14.273h-8.8555l-4.6562-14.273c-0.6875-2.2148-2.5938-3.8945-4.8086-4.4258-7.0977-1.5273-13.816-4.3516-20.074-8.3203-1.9844-1.2227-4.4258-1.375-6.4883-0.30469l-13.434 6.8711-6.2578-6.2578 6.8711-13.434c0.60938-1.1445 0.76172-2.4414 0.60938-3.6641 0-0.15234 0.078125-0.23047 0.078125-0.38281 0-2.0625-0.99219-3.8164-2.5195-5.0391-3.1289-5.4961-5.4961-11.375-6.793-17.48-0.53516-2.2891-2.2148-4.1211-4.4258-4.8867l-14.352-4.582v-8.8555l14.352-4.6562c2.2148-0.6875 3.8945-2.5195 4.4258-4.8086 1.6016-7.25 4.4258-13.969 8.3203-20 1.2969-1.9844 1.375-4.5039 0.30469-6.5664l-6.8711-13.434 6.2578-6.2578 13.434 6.8711c2.0625 1.0703 4.582 0.91797 6.5664-0.30469 6.1055-3.8945 12.824-6.7188 20-8.3203 2.2891-0.53516 4.1211-2.2148 4.8086-4.4258l4.6562-14.352h8.8555l4.6562 14.352c0.6875 2.2148 2.5938 3.8945 4.8086 4.4258 7.1758 1.6016 13.895 4.3516 20 8.3203 1.9844 1.2969 4.5039 1.375 6.5664 0.30469l13.434-6.8711 6.2578 6.2578-6.8711 13.434c-1.0703 2.0625-0.91797 4.582 0.30469 6.5664 3.8945 6.1055 6.7188 12.824 8.3203 20 0.53516 2.2891 2.2148 4.1211 4.4258 4.8867l14.352 4.6562z"/>
  <path d="m549.54 441.45c-24.273 0-43.969 19.695-43.969 43.969 0 24.273 19.77 43.969 43.969 43.969 24.273 0 43.969-19.77 43.969-43.969s-19.695-43.969-43.969-43.969zm0 74.809c-17.023 0-30.84-13.816-30.84-30.84 0-17.023 13.816-30.84 30.84-30.84 17.023 0 30.84 13.816 30.84 30.84 0 17.023-13.816 30.84-30.84 30.84z"/>
 </g>
</svg>